# xmcd
#
# Track frame offsets:
#	150
#	16362
#	30969
#	46560
#	57964
#	74305
#	85592
#	97887
#	111652
#	136850
#	153017
#
# Disc length: 2255 seconds
#
# Revision: 1
# Processed by: cddbd v1.5.2PL0 Copyright (c) Steve Scherf et al.
# Submitted via: EZCDAudioConverter 9.1.0.1
#
DISCID=7808cd0b
DTITLE=MC RHARA and MC MORENA - O DESAFIO [CD 199.003.383) MCK COMERCIAL E REPRE
DTITLE=SENTAÇÃO FONOGRÁFICA LTDA
DYEAR=1998
DGENRE=FUNK
TTITLE0=O DESAFIO (BY GILMAR SINISTRO)
TTITLE1=O PANCADÃO DO LARANJA (BY GILMAR SINISTRO)
TTITLE2=DESUNIÃO FORMAL (BY GILMAR SINISTRO)
TTITLE3=SEM PRECONCEITO E DESCRIMINAÇÃO (BY GILMAR SINISTRO)
TTITLE4=MINHA PAIXÃO (BY GILMAR SINISTRO)
TTITLE5=CORAÇÃO FERIDO (BY GILMAR SINISTRO)
TTITLE6=PAZ NOS BAILES FUNK (BY GILMAR SINISTRO)
TTITLE7=FUNK DA SOLIDÃO (BY GILMAR SINISTRO)
TTITLE8=OS SANGUE B. DA BAIXADA (BY GILMAR SINISTRO)
TTITLE9=O FUNK DO GARANHÃO (BY GILMAR SINISTRO)
TTITLE10=MONTAGEM - TÁ ZUANDO (BY GILMAR SINISTRO)
EXTD=
EXTT0=
EXTT1=
EXTT2=
EXTT3=
EXTT4=
EXTT5=
EXTT6=
EXTT7=
EXTT8=
EXTT9=
EXTT10=
PLAYORDER=
